<svg xmlns="http://www.w3.org/2000/svg" viewBox="95.36000000000001 104 384.2799987792969 349.09000396728516"><rect height="100%" width="100%" x="95.36000000000001" y="104" fill="rgba(0, 18, 63, 1)"/> <svg xmlns="http://www.w3.org/2000/svg" xmlns:xlink="http://www.w3.org/1999/xlink" version="1.1" id="Layer_1" x="172.505" y="174" viewBox="136.79998779296875 303.79791259765625 726.4000244140625 392.43170166015625" xml:space="preserve" height="124.25" width="230" preserveAspectRatio="xMinYMin" enable-background="new 0 0 1000 1000" style="overflow: visible;"><path class="st0" d="M585.9,607.1c0,1.5,0,3.1-0.1,4.6c0,0.3,0,0.6,0,0.9c0,0.2,0,0.4,0,0.6c-1.6,26.8-15.7,52.5-40,68.1  c-40.5,25.9-94.3,14.1-120.2-26.5l-62.6-96.2c-0.9-1.7-1.7-3.3-2.7-5l-0.2-0.3l-0.2,0.3l-2.1,3.3l-12,19.1l-50.3,77.3  c-20.6,32.2-58.8,46.3-94,37.7c-9.1-2.2-17.9-5.9-26.2-11.2c-0.7-0.4-1.4-0.9-2-1.3c0,0,0,0-0.1-0.1c-20.4-14.4-32.8-36.2-36-59.4  c-0.1-2.2-0.2-4.4-0.2-6.7c0-14.6,2.6-28.5,7.4-41.4c0,0,0,0,0,0c1.9-5.2,4.2-10.2,6.8-15l10.2-15.9l10.9-16.8l6.1-9.6l41.6-64.6  l0.1-0.1l68.5-106.3c9-14,21.6-24.9,36.2-31.8c10.5-4.5,22-6.9,33.8-7c29.9-0.2,57.8,15,73.9,40.2l110.2,171l6.1,9.4l4.6,7.2  l18.9,29.4c9,14,13.4,29.6,13.7,45.1C585.9,606.4,585.9,606.7,585.9,607.1z" style="fill: #00B4FE;"></path><linearGradient id="SVGID_1_" gradientUnits="userSpaceOnUse" x1="204.559" y1="692.9196" x2="277.3183" y2="493.0152" style=""><stop offset="0" style="stop-color: #00B4FE;"></stop><stop offset="8.784914e-02" style="stop-color: #00AFF7;"></stop><stop offset="0.2156" style="stop-color: #00A1E4;"></stop><stop offset="0.3677" style="stop-color: #008BC4;"></stop><stop offset="0.5386" style="stop-color: #006B98;"></stop><stop offset="0.7251" style="stop-color: #00435F;"></stop><stop offset="0.9218" style="stop-color: #00131B;"></stop><stop offset="0.9935" style="stop-color: #000000;"></stop></linearGradient><path class="st1" d="M360,553.3l-64.7,100.2c-20.6,32.2-58.8,46.3-94,37.7c-9.1-2.2-17.9-5.9-26.2-11.2c-0.7-0.4-1.4-0.9-2-1.3  c0,0,0,0-0.1-0.1c-20.4-14.4-32.8-36.2-36-59.4c-0.1-2.2-0.2-4.4-0.2-6.7c0-14.6,2.6-28.5,7.4-41.4c0,0,0,0,0,0  c1.9-5.2,4.2-10.2,6.8-15c3-5.6,6.4-10.9,10.2-15.9c1.9-2.5,4-5,6.1-7.4c2.5-2.8,5.2-5.5,8-8.1c1.1-1,2.2-2,3.3-2.9  c20.9-17.9,48-28.7,77.7-28.7c15.6,0,30.5,3,44.1,8.4c4.3,1.7,8.4,3.6,12.4,5.8c19.5,10.5,35.8,26.3,46.9,45.5L360,553.3z" style="opacity: 0.5; fill: url(#SVGID_1_);"></path><path class="st2" d="M863.1,608.3c0,1.5,0,3.1-0.1,4.6c0,0.3,0,0.6,0,0.9c0,0.2,0,0.4,0,0.6c-1.6,26.8-15.7,52.5-40,68.1  c-40.5,25.9-94.3,14.1-120.2-26.5l-62.6-96.2c-0.9-1.7-1.7-3.3-2.7-5l-0.2-0.3l-0.2,0.3l-2.1,3.3l-12,19.1l-50.3,77.3  c-20.6,32.2-58.8,46.3-94,37.7c-9.1-2.2-17.9-5.9-26.2-11.2c-0.7-0.4-1.4-0.9-2-1.3c0,0,0,0-0.1-0.1c-20.4-14.4-32.8-36.2-36-59.4  c-0.1-2.2-0.2-4.4-0.2-6.7c0-14.6,2.6-28.5,7.4-41.4c0,0,0,0,0,0c1.9-5.2,4.2-10.2,6.8-15l10.2-15.9l10.9-16.8l6.1-9.6l41.6-64.6  l0.1-0.1l68.5-106.3c9-14,21.6-24.9,36.2-31.8c10.5-4.5,22-6.9,33.8-7c29.9-0.2,57.8,15,73.9,40.2l110.2,171l6.1,9.4l4.6,7.2  l18.9,29.4c9,14,13.4,29.6,13.7,45.1C863.1,607.7,863.1,608,863.1,608.3z" style="fill: #19E3F2;"></path><linearGradient id="SVGID_00000125562533895605240110000012450923354178655621_" gradientUnits="userSpaceOnUse" x1="481.782" y1="694.184" x2="554.5412" y2="494.2795" style=""><stop offset="0" style="stop-color: #00B4FE;"></stop><stop offset="8.784914e-02" style="stop-color: #00AFF7;"></stop><stop offset="0.2156" style="stop-color: #00A1E4;"></stop><stop offset="0.3677" style="stop-color: #008BC4;"></stop><stop offset="0.5386" style="stop-color: #006B98;"></stop><stop offset="0.7251" style="stop-color: #00435F;"></stop><stop offset="0.9218" style="stop-color: #00131B;"></stop><stop offset="0.9935" style="stop-color: #000000;"></stop></linearGradient><path style="opacity: 0.5; fill: url(#SVGID_00000125562533895605240110000012450923354178655621_);" d="M637.3,554.6l-64.7,100.2   c-20.6,32.2-58.8,46.3-94,37.7c-9.1-2.2-17.9-5.9-26.2-11.2c-0.7-0.4-1.4-0.9-2-1.3c0,0,0,0-0.1-0.1c-20.4-14.4-32.8-36.2-36-59.4   c-0.1-2.2-0.2-4.4-0.2-6.7c0-14.6,2.6-28.5,7.4-41.4c0,0,0,0,0,0c1.9-5.2,4.2-10.2,6.8-15c3-5.6,6.4-10.9,10.2-15.9   c1.9-2.5,4-5,6.1-7.4c2.5-2.8,5.2-5.5,8-8.1c1.1-1,2.2-2,3.3-2.9c20.9-17.9,48-28.7,77.7-28.7c15.6,0,30.5,3,44.1,8.4   c4.3,1.7,8.4,3.6,12.4,5.8c19.5,10.5,35.8,26.3,46.9,45.5L637.3,554.6z"></path></svg> <svg y="342" viewBox="2.4100000858306885 12.399999618530273 244.27999877929688 41.090003967285156" x="165.36" height="41.090003967285156" width="244.27999877929688" xmlns="http://www.w3.org/2000/svg" style="overflow: visible;"><g fill="#ffffff" fill-opacity="1" style=""><path d="M29.02 53.10L22.55 53.10L22.55 47.18L22.16 45.92L22.16 35.55Q22.16 32.53 20.35 30.86Q18.54 29.18 14.87 29.18L14.87 29.18Q12.40 29.18 10.01 29.95Q7.63 30.72 5.98 32.09L5.98 32.09L3.29 27.10Q5.65 25.29 8.91 24.38Q12.18 23.48 15.69 23.48L15.69 23.48Q22.05 23.48 25.54 26.52Q29.02 29.57 29.02 35.93L29.02 35.93L29.02 53.10ZM13.33 53.49L13.33 53.49Q10.04 53.49 7.57 52.36Q5.10 51.24 3.76 49.23Q2.41 47.23 2.41 44.71L2.41 44.71Q2.41 42.24 3.59 40.27Q4.77 38.29 7.46 37.14Q10.15 35.99 14.59 35.99L14.59 35.99L23.09 35.99L23.09 40.54L15.09 40.54Q11.57 40.54 10.37 41.66Q9.16 42.79 9.16 44.43L9.16 44.43Q9.16 46.30 10.64 47.40Q12.12 48.49 14.76 48.49L14.76 48.49Q17.28 48.49 19.28 47.34Q21.28 46.19 22.16 43.94L22.16 43.94L23.31 48.05Q22.33 50.63 19.78 52.06Q17.23 53.49 13.33 53.49ZM46.85 53.49L46.85 53.49Q43.17 53.49 39.80 52.53Q36.43 51.57 34.45 50.19L34.45 50.19L37.08 44.98Q39.06 46.24 41.80 47.07Q44.54 47.89 47.29 47.89L47.29 47.89Q50.52 47.89 51.98 47.01Q53.43 46.13 53.43 44.65L53.43 44.65Q53.43 43.45 52.44 42.82Q51.46 42.19 49.87 41.86Q48.27 41.53 46.33 41.25Q44.38 40.98 42.43 40.51Q40.48 40.05 38.89 39.14Q37.30 38.24 36.32 36.70Q35.33 35.16 35.33 32.64L35.33 32.64Q35.33 29.84 36.92 27.79Q38.51 25.73 41.39 24.60Q44.27 23.48 48.22 23.48L48.22 23.48Q51.18 23.48 54.20 24.14Q57.22 24.80 59.19 26.00L59.19 26.00L56.56 31.21Q54.47 29.95 52.36 29.49Q50.25 29.02 48.16 29.02L48.16 29.02Q45.04 29.02 43.53 29.95Q42.02 30.88 42.02 32.31L42.02 32.31Q42.02 33.63 43.01 34.29Q44.00 34.94 45.59 35.33Q47.18 35.71 49.12 35.96Q51.07 36.21 52.99 36.70Q54.91 37.19 56.53 38.04Q58.15 38.89 59.14 40.43Q60.12 41.97 60.12 44.43L60.12 44.43Q60.12 47.18 58.51 49.21Q56.89 51.24 53.92 52.36Q50.96 53.49 46.85 53.49ZM78.72 39.88L71.64 46.57L71.81 37.96L87.11 23.81L95.34 23.81L82.34 36.86L78.72 39.88ZM72.91 53.10L66.05 53.10L66.05 12.40L72.91 12.40L72.91 53.10ZM96.49 53.10L88.16 53.10L77.46 39.88L81.79 34.40L96.49 53.10ZM108.40 53.10L101.60 53.10L101.60 14.70L107.47 14.70L124.25 42.73L121.18 42.73L137.69 14.70L143.56 14.70L143.62 53.10L136.87 53.10L136.81 25.29L138.24 25.29L124.20 48.71L121.01 48.71L106.75 25.29L108.40 25.29L108.40 53.10ZM155.90 53.10L148.55 53.10L165.83 14.70L172.85 14.70L190.19 53.10L182.73 53.10L167.86 18.49L170.72 18.49L155.90 53.10ZM181.08 44.21L156.51 44.21L158.43 38.62L179.16 38.62L181.08 44.21ZM202.20 53.10L195.07 53.10L195.07 14.70L202.20 14.70L202.20 53.10ZM219.65 53.10L212.57 53.10L212.57 14.70L218.44 14.70L242.52 44.27L239.62 44.27L239.62 14.70L246.69 14.70L246.69 53.10L240.82 53.10L216.74 23.53L219.65 23.53L219.65 53.10Z" transform="translate(0, 0)"></path></g></svg></svg>