<?xml version="1.0" encoding="utf-8"?>
<!-- Generator: Adobe Illustrator 27.5.0, SVG Export Plug-In . SVG Version: 6.00 Build 0)  -->
<svg version="1.1" id="Layer_1" xmlns="http://www.w3.org/2000/svg" xmlns:xlink="http://www.w3.org/1999/xlink" x="0px" y="0px"
	 viewBox="0 0 522 129.3" style="enable-background:new 0 0 522 129.3;" xml:space="preserve">
<style type="text/css">
	.st0{fill:#00B4FE;}
	.st1{opacity:0.5;fill:url(#SVGID_1_);enable-background:new    ;}
	.st2{fill:#19E3F2;}
	.st3{opacity:0.5;fill:url(#SVGID_00000057830479805515659540000015507425085518485402_);enable-background:new    ;}
	.st4{fill:#1D1D1B;}
</style>
<path class="st0" d="M117.8,87.1c0,0.3,0,0.7,0,1c0,0.1,0,0.1,0,0.2v0.1c-0.4,6.1-3.6,11.9-9,15.4c-9.2,5.9-21.3,3.2-27.2-6
	L67.4,76.2c-0.2-0.4-0.4-0.7-0.6-1.1V75v0.1l-0.5,0.7l-2.7,4.3L52.2,97.6c-4.7,7.3-13.3,10.5-21.3,8.5c-2.1-0.5-4-1.3-5.9-2.5
	c-0.2-0.1-0.3-0.2-0.5-0.3l0,0c-4.6-3.3-7.4-8.2-8.1-13.4c0-0.5,0-1,0-1.5c0-3.3,0.6-6.4,1.7-9.4l0,0c0.4-1.2,1-2.3,1.5-3.4l2.3-3.6
	l2.5-3.8l1.4-2.2l9.4-14.6l0,0l15.5-24c2-3.2,4.9-5.6,8.2-7.2c2.4-1,5-1.6,7.6-1.6c6.8,0,13.1,3.4,16.7,9.1l24.9,38.7l1.4,2.1l1,1.6
	l4.3,6.7c2,3.2,3,6.7,3.1,10.2C117.8,87,117.8,87,117.8,87.1z"/>
<linearGradient id="SVGID_1_" gradientUnits="userSpaceOnUse" x1="2853.95" y1="2625.6304" x2="2905.9607" y2="2482.7319" gradientTransform="matrix(0.3166 0 0 0.3166 -871.977 -725.35)">
	<stop  offset="0" style="stop-color:#00B4FE"/>
	<stop  offset="8.784914e-02" style="stop-color:#00AFF7"/>
	<stop  offset="0.2156" style="stop-color:#00A1E4"/>
	<stop  offset="0.3677" style="stop-color:#008BC4"/>
	<stop  offset="0.5386" style="stop-color:#006B98"/>
	<stop  offset="0.7251" style="stop-color:#00435F"/>
	<stop  offset="0.9218" style="stop-color:#00131B"/>
	<stop  offset="0.9935" style="stop-color:#000000"/>
</linearGradient>
<path class="st1" d="M66.7,74.3L52.1,97c-4.7,7.3-13.3,10.5-21.3,8.5c-2.1-0.5-4-1.3-5.9-2.5c-0.2-0.1-0.3-0.2-0.5-0.3l0,0
	c-4.6-3.3-7.4-8.2-8.1-13.4c0-0.5,0-1,0-1.5c0-3.3,0.6-6.4,1.7-9.4l0,0c0.4-1.2,1-2.3,1.5-3.4c0.7-1.3,1.4-2.5,2.3-3.6
	c0.4-0.6,0.9-1.1,1.4-1.7c0.6-0.6,1.2-1.2,1.8-1.8c0.2-0.2,0.5-0.5,0.7-0.7c4.7-4,10.9-6.5,17.6-6.5c3.5,0,6.9,0.7,10,1.9
	c1,0.4,1.9,0.8,2.8,1.3c4.4,2.4,8.1,5.9,10.6,10.3V74.3z"/>
<path class="st2" d="M180.5,87.1c0,0.3,0,0.7,0,1c0,0.1,0,0.1,0,0.2v0.1c-0.4,6.1-3.6,11.9-9,15.4c-9.2,5.9-21.3,3.2-27.2-6
	L130.1,76c-0.2-0.4-0.4-0.7-0.6-1.1v-0.1v0.1l-0.5,0.7l-2.7,4.3l-11.4,17.5c-4.7,7.3-13.3,10.5-21.3,8.5c-2.1-0.5-4-1.3-5.9-2.5
	c-0.2-0.1-0.3-0.2-0.5-0.3l0,0c-4.6-3.3-7.4-8.2-8.1-13.4c0-0.5,0-1,0-1.5c0-3.3,0.6-6.4,1.7-9.4l0,0c0.4-1.2,1-2.3,1.5-3.4l2.3-3.6
	l2.5-3.8l1.4-2.2l9.4-14.6l0,0l15.5-24c2-3.2,4.9-5.6,8.2-7.2c2.4-1,5-1.6,7.6-1.6c6.8,0,13.1,3.4,16.7,9.1l24.9,38.7l1.4,2.1l1,1.6
	l4.3,6.7c2,3.2,3,6.7,3.1,10.2C180.5,87,180.5,87.1,180.5,87.1z"/>
<linearGradient id="SVGID_00000106138892307908137050000009013739667230647982_" gradientUnits="userSpaceOnUse" x1="3052.3076" y1="2626.5779" x2="3104.3181" y2="2483.6794" gradientTransform="matrix(0.3166 0 0 0.3166 -871.977 -725.35)">
	<stop  offset="0" style="stop-color:#00B4FE"/>
	<stop  offset="8.784914e-02" style="stop-color:#00AFF7"/>
	<stop  offset="0.2156" style="stop-color:#00A1E4"/>
	<stop  offset="0.3677" style="stop-color:#008BC4"/>
	<stop  offset="0.5386" style="stop-color:#006B98"/>
	<stop  offset="0.7251" style="stop-color:#00435F"/>
	<stop  offset="0.9218" style="stop-color:#00131B"/>
	<stop  offset="0.9935" style="stop-color:#000000"/>
</linearGradient>
<path style="opacity:0.5;fill:url(#SVGID_00000106138892307908137050000009013739667230647982_);enable-background:new    ;" d="
	M129.5,74.6l-14.6,22.7c-4.7,7.3-13.3,10.5-21.3,8.5c-2.1-0.5-4-1.3-5.9-2.5c-0.2-0.1-0.3-0.2-0.5-0.3l0,0
	c-4.6-3.3-7.4-8.2-8.1-13.4c0-0.5,0-1,0-1.5c0-3.3,0.6-6.4,1.7-9.4l0,0c0.4-1.2,1-2.3,1.5-3.4c0.7-1.3,1.4-2.5,2.3-3.6
	c0.4-0.6,0.9-1.1,1.4-1.7c0.6-0.6,1.2-1.2,1.8-1.8c0.2-0.2,0.5-0.5,0.7-0.7c4.7-4,10.9-6.5,17.6-6.5c3.5,0,6.9,0.7,10,1.9
	c1,0.4,1.9,0.8,2.8,1.3C123.3,66.6,127,70.1,129.5,74.6L129.5,74.6z"/>
<g>
	<path class="st4" d="M231.8,85.4h-7.3v-6.6l-0.4-1.4V65.7c0-2.3-0.7-4-2-5.3c-1.4-1.3-3.4-1.9-6.2-1.9l0,0c-1.8,0-3.7,0.3-5.5,0.9
		c-1.8,0.6-3.3,1.4-4.5,2.4l0,0l-3-5.6c1.8-1.4,3.9-2.4,6.3-3.1c2.4-0.7,5-1,7.6-1l0,0c4.8,0,8.4,1.1,11.1,3.4
		c2.6,2.3,3.9,5.8,3.9,10.6l0,0L231.8,85.4L231.8,85.4z M214.2,85.8L214.2,85.8c-2.5,0-4.6-0.4-6.5-1.3c-1.8-0.8-3.3-2-4.3-3.5
		s-1.5-3.2-1.5-5.1l0,0c0-1.8,0.4-3.5,1.3-5c0.9-1.5,2.3-2.7,4.3-3.5c2-0.9,4.7-1.3,8-1.3l0,0h9.5v5.1h-9c-2.6,0-4.4,0.4-5.3,1.3
		c-0.9,0.8-1.4,1.9-1.4,3.1l0,0c0,1.4,0.6,2.5,1.7,3.3c1.1,0.8,2.7,1.2,4.6,1.2l0,0c1.9,0,3.6-0.4,5.1-1.3s2.6-2.1,3.2-3.8l0,0
		l1.3,4.6c-0.7,1.9-2.1,3.4-4,4.5C219.5,85.3,217.1,85.8,214.2,85.8z M251.8,85.8L251.8,85.8c-2.8,0-5.4-0.4-7.9-1.1s-4.5-1.6-6-2.6
		l0,0l3-5.9c1.5,0.9,3.2,1.7,5.3,2.3c2.1,0.6,4.1,0.9,6.2,0.9l0,0c2.4,0,4.2-0.3,5.3-1s1.6-1.5,1.6-2.7l0,0c0-0.9-0.4-1.6-1.1-2.1
		s-1.7-0.8-2.9-1.1c-1.2-0.2-2.5-0.5-4-0.7s-2.9-0.5-4.4-0.8s-2.8-0.9-4-1.5c-1.2-0.7-2.2-1.6-2.9-2.7c-0.7-1.2-1.1-2.7-1.1-4.6l0,0
		c0-2.1,0.6-3.9,1.8-5.4s2.9-2.7,5-3.6c2.2-0.8,4.7-1.3,7.7-1.3l0,0c2.2,0,4.5,0.2,6.7,0.7s4.1,1.2,5.6,2.1l0,0l-3,5.9
		c-1.6-0.9-3.1-1.6-4.7-1.9c-1.6-0.4-3.2-0.5-4.7-0.5l0,0c-2.3,0-4.1,0.3-5.2,1c-1.1,0.7-1.7,1.6-1.7,2.7l0,0c0,1,0.4,1.7,1.1,2.2
		c0.7,0.5,1.7,0.9,2.9,1.2c1.2,0.3,2.5,0.5,4,0.7s2.9,0.5,4.3,0.8s2.8,0.9,4,1.5s2.2,1.5,2.9,2.7c0.7,1.2,1.1,2.7,1.1,4.5l0,0
		c0,2.1-0.6,3.8-1.8,5.4c-1.2,1.5-2.9,2.7-5.2,3.5C257.5,85.4,254.9,85.8,251.8,85.8z M287.6,70.6l-8,7.5l0.2-9.7L297,52.5h9.2
		l-14.6,14.7L287.6,70.6z M281.1,85.4h-7.7V39.7h7.7V85.4z M307.6,85.4h-9.4l-12-14.8l4.9-6.2L307.6,85.4z M321,85.4h-7.6V42.3h6.6
		l18.8,31.5h-3.4l18.5-31.5h6.6l0.1,43.1H353l-0.1-31.2h1.6l-15.8,26.3h-3.6l-16-26.3h1.9V85.4z M374.3,85.4H366l19.4-43.1h7.9
		l19.5,43.1h-8.4l-16.7-38.9h3.2L374.3,85.4z M402.6,75.4H375l2.2-6.3h23.3L402.6,75.4z M426.3,85.4h-8V42.3h8V85.4z M445.9,85.4h-8
		V42.3h6.6l27,33.2h-3.3V42.3h7.9v43.1h-6.6l-27-33.2h3.3v33.2H445.9z"/>
</g>
</svg>
